<svg width="80" height="90" viewBox="0 0 134 90" fill="none" xmlns="http://www.w3.org/2000/svg">
<rect x="132.501" y="89.3303" width="44" height="44" rx="9.5" transform="rotate(-179.64 132.501 89.3303)" fill="#015B9D" stroke="#FFFFFA"/>
<rect x="127.035" y="83.7959" width="33" height="33" rx="5" transform="rotate(-179.64 127.035 83.7959)" fill="black" fill-opacity="0.1"/>
<rect x="88.5014" y="89.054" width="44" height="44" rx="9.5" transform="rotate(-179.64 88.5014 89.054)" fill="#015B9D" stroke="#FFFFFA"/>
<rect x="83.036" y="83.5196" width="33" height="33" rx="5" transform="rotate(-179.64 83.036 83.5196)" fill="black" fill-opacity="0.1"/>
<rect x="44.5022" y="88.7777" width="44" height="44" rx="9.5" transform="rotate(-179.64 44.5022 88.7777)" fill="#015B9D" stroke="#FFFFFA"/>
<rect x="39.0369" y="83.2433" width="33" height="33" rx="5" transform="rotate(-179.64 39.0369 83.2433)" fill="black" fill-opacity="0.1"/>
<rect x="44.7785" y="44.7786" width="44" height="44" rx="9.5" transform="rotate(-179.64 44.7785 44.7786)" fill="#015B9D" stroke="#FFFFFA"/>
<rect x="39.3132" y="39.2441" width="33" height="33" rx="5" transform="rotate(-179.64 39.3132 39.2441)" fill="black" fill-opacity="0.1"/>
</svg>
