<svg width="135" height="90" viewBox="0 0 135 90" fill="none" xmlns="http://www.w3.org/2000/svg">
<rect x="132.501" y="89.3302" width="44" height="44" rx="9.5" transform="rotate(-179.64 132.501 89.3302)" fill="#F89622" stroke="#FFFFFA"/>
<rect x="127.035" y="83.7958" width="33" height="33" rx="5" transform="rotate(-179.64 127.035 83.7958)" fill="black" fill-opacity="0.1"/>
<rect x="88.5014" y="89.054" width="44" height="44" rx="9.5" transform="rotate(-179.64 88.5014 89.054)" fill="#F89622" stroke="#FFFFFA"/>
<rect x="83.036" y="83.5195" width="33" height="33" rx="5" transform="rotate(-179.64 83.036 83.5195)" fill="black" fill-opacity="0.1"/>
<rect x="44.5023" y="88.7777" width="44" height="44" rx="9.5" transform="rotate(-179.64 44.5023 88.7777)" fill="#F89622" stroke="#FFFFFA"/>
<rect x="39.0369" y="83.2432" width="33" height="33" rx="5" transform="rotate(-179.64 39.0369 83.2432)" fill="black" fill-opacity="0.1"/>
<rect x="133.502" y="44.7785" width="44" height="44" rx="9.5" transform="rotate(-179.64 133.502 44.7785)" fill="#F89622" stroke="#FFFFFA"/>
<rect x="128.037" y="39.2441" width="33" height="33" rx="5" transform="rotate(-179.64 128.037 39.2441)" fill="black" fill-opacity="0.1"/>
</svg>
